<?xml version="1.0" encoding="UTF-8" standalone="no"?><!DOCTYPE svg PUBLIC "-//W3C//DTD SVG 1.1//EN" "http://www.w3.org/Graphics/SVG/1.1/DTD/svg11.dtd"><svg width="100%" height="100%" viewBox="0 0 2134 2134" version="1.1" xmlns="http://www.w3.org/2000/svg" xmlns:xlink="http://www.w3.org/1999/xlink" xml:space="preserve" xmlns:serif="http://www.serif.com/" style="fill-rule:evenodd;clip-rule:evenodd;stroke-linejoin:round;stroke-miterlimit:2;"><rect id="bg" x="0" y="0" width="2133.33" height="2133.33" style="fill:#0dcaf2;"/><path d="M1066.67,1866.67c438.867,-0 800,-361.133 800,-800c-0,-438.867 -361.133,-800 -800,-800c-438.867,-0 -800,361.133 -800,800c-0,438.867 361.133,800 800,800Z" style="fill:#f20d0d;"/><path d="M813.542,813.542c29.375,-29.375 76.875,-29.375 105.937,-0l146.875,146.875l146.875,-146.875c29.375,-29.375 76.875,-29.375 105.938,-0c29.062,29.375 29.375,76.875 -0,105.937l-146.875,146.875l146.875,146.875c29.375,29.375 29.375,76.875 -0,105.938c-29.375,29.062 -76.875,29.375 -105.938,-0l-146.875,-146.875l-146.875,146.875c-29.375,29.375 -76.875,29.375 -105.937,-0c-29.063,-29.375 -29.375,-76.875 -0,-105.938l146.875,-146.875l-146.875,-146.875c-29.375,-29.375 -29.375,-76.875 -0,-105.937Z" style="fill:#fff;"/></svg>