<?xml version="1.0" encoding="UTF-8" standalone="no"?><!DOCTYPE svg PUBLIC "-//W3C//DTD SVG 1.1//EN" "http://www.w3.org/Graphics/SVG/1.1/DTD/svg11.dtd"><svg width="100%" height="100%" viewBox="0 0 2134 2134" version="1.1" xmlns="http://www.w3.org/2000/svg" xmlns:xlink="http://www.w3.org/1999/xlink" xml:space="preserve" xmlns:serif="http://www.serif.com/" style="fill-rule:evenodd;clip-rule:evenodd;stroke-linejoin:round;stroke-miterlimit:2;"><rect id="bg" x="0" y="0" width="2133.33" height="2133.33" style="fill:#0dcaf2;"/><path d="M1041.71,266.761l49.995,-0c41.557,-0 74.991,33.433 74.991,74.991l-0,33.433c251.22,41.87 449.634,240.285 491.505,491.505l8.436,0c55.306,0 99.988,44.682 99.988,99.988c0,55.306 -44.682,99.989 -99.988,99.989l-1199.86,-0c-55.306,-0 -99.988,-44.683 -99.988,-99.989c-0,-55.306 44.682,-99.988 99.988,-99.988l8.437,0c41.87,-251.22 240.284,-449.635 491.504,-491.505l0,-33.433c0,-41.558 33.434,-74.991 74.991,-74.991Zm-574.932,899.894l199.977,-0l-0,399.953l124.985,-0l-0,-399.953l199.976,-0l0,399.953l149.983,-0l-0,-399.953l199.976,-0l0,399.953l124.986,-0l-0,-399.953l199.976,-0l0,413.389c1.875,0.937 3.75,2.187 5.624,3.437l149.983,99.988c36.558,24.372 53.119,69.992 40.308,112.175c-12.811,42.182 -51.869,70.929 -95.927,70.929l-1399.84,-0c-44.058,-0 -82.803,-28.747 -95.614,-70.929c-12.811,-42.183 3.437,-87.803 40.308,-112.175l149.982,-99.988c1.875,-1.25 3.75,-2.187 5.624,-3.437l-0.312,-413.389Z" style="fill:#fff;fill-rule:nonzero;"/></svg>