<?xml version="1.0" encoding="UTF-8" standalone="no"?><!DOCTYPE svg PUBLIC "-//W3C//DTD SVG 1.1//EN" "http://www.w3.org/Graphics/SVG/1.1/DTD/svg11.dtd"><svg width="100%" height="100%" viewBox="0 0 2134 2134" version="1.1" xmlns="http://www.w3.org/2000/svg" xmlns:xlink="http://www.w3.org/1999/xlink" xml:space="preserve" xmlns:serif="http://www.serif.com/" style="fill-rule:evenodd;clip-rule:evenodd;stroke-linejoin:round;stroke-miterlimit:2;"><rect id="bg" x="0" y="0" width="2133.33" height="2133.33" style="fill:#0dcaf2;"/><g id="icon"><path id="left" d="M453.196,1358.7l-0,0.25c-70.761,-61.51 -110.768,-149.774 -124.52,-243.038l-60.509,-410.815c-3.501,-24.503 -1.5,-49.757 12.752,-69.761c37.006,-52.258 143.272,-153.024 425.067,-195.78c281.794,-42.757 412.314,22.253 462.822,61.259l6.001,5.251c-131.771,12.002 -212.533,52.508 -259.041,88.264c-42.506,33.005 -57.509,80.263 -62.509,114.768l-48.508,328.302c-6.501,0.25 -13.252,1 -19.753,2c-88.014,13.502 -154.524,82.013 -170.527,165.776c-3.75,20.753 20.753,30.505 37.006,17.503c38.756,-31.005 85.263,-53.259 136.771,-63.51c-7.251,96.015 10.002,196.53 64.761,284.044c17.252,27.505 37.505,57.759 60.509,88.514c-14.752,5.001 -29.755,9.002 -45.007,11.252c-145.273,22.003 -311.049,-94.015 -415.315,-184.279Zm219.284,-549.086l-0.25,-0c-19.253,13.752 -42.256,23.253 -67.01,27.004c-24.754,3.751 -49.258,1.5 -71.762,-6.001c-12.752,-4.251 -27.254,3.251 -25.754,16.753c0.25,1.25 0.25,2.75 0.5,4c8.002,54.259 58.01,92.015 111.768,83.763c53.758,-8.251 90.764,-58.759 82.763,-113.267c-0.25,-1.251 -0.5,-2.751 -0.75,-4.001c-2.5,-13.252 -18.503,-16.002 -29.505,-8.251Z" style="fill:#f20d0d;"/><path id="right" d="M920.769,1400.7l0.25,-0c-50.008,-79.763 -62.76,-176.028 -49.007,-269.293l60.509,-410.814c3.501,-24.504 12.752,-48.008 32.255,-63.01c50.508,-39.006 180.779,-104.016 462.573,-61.26c281.794,42.757 388.061,143.523 425.066,195.781c14.253,20.003 16.253,45.257 12.752,69.761l-60.509,410.814c-13.752,93.515 -53.758,181.779 -124.52,243.039c-104.016,90.514 -270.042,206.282 -415.315,184.279c-145.273,-22.004 -270.542,-182.029 -344.054,-299.297Zm357.306,-386.811l0.25,-0c11.002,7.751 27.005,5.001 29.505,-8.251c0.25,-1.251 0.5,-2.751 0.75,-4.001c8.001,-54.509 -29.004,-105.017 -82.763,-113.268c-53.758,-8.251 -103.766,29.255 -111.767,83.763c-0.25,1.25 -0.25,2.751 -0.501,4.001c-1.5,13.502 13.003,21.003 25.755,16.753c22.253,-7.502 46.757,-9.752 71.761,-6.001c25.004,3.75 47.757,13.252 67.01,27.004Zm340.554,38.756l0.25,-0c0.25,-1.25 0.5,-2.751 0.75,-4.001c8.001,-54.508 -29.005,-105.016 -82.763,-113.267c-53.759,-8.252 -103.766,29.254 -111.768,83.763c-0.25,1.25 -0.25,2.75 -0.5,4c-1.5,13.502 13.002,21.004 25.754,16.753c22.254,-7.501 46.758,-9.752 71.762,-6.001c25.004,3.751 47.757,13.252 67.01,27.004c11.002,7.751 27.004,5.001 29.505,-8.251Zm-26.754,248.539l-0.25,-0.25c8.501,-19.253 -12.502,-35.756 -31.505,-27.254c-72.012,32.255 -153.775,44.507 -237.288,32.005c-83.513,-12.502 -157.774,-48.758 -217.534,-100.766c-15.752,-13.502 -40.506,-4.001 -38.006,16.752c14.753,121.269 107.517,222.785 232.537,241.788c125.019,19.003 243.038,-50.508 292.046,-162.275Z" style="fill:#fff;"/></g></svg>