<?xml version="1.0" encoding="UTF-8" standalone="no"?><!DOCTYPE svg PUBLIC "-//W3C//DTD SVG 1.1//EN" "http://www.w3.org/Graphics/SVG/1.1/DTD/svg11.dtd"><svg width="100%" height="100%" viewBox="0 0 2134 2134" version="1.1" xmlns="http://www.w3.org/2000/svg" xmlns:xlink="http://www.w3.org/1999/xlink" xml:space="preserve" xmlns:serif="http://www.serif.com/" style="fill-rule:evenodd;clip-rule:evenodd;stroke-linejoin:round;stroke-miterlimit:2;"><rect id="bg" x="0" y="0" width="2133.33" height="2133.33" style="fill:#0dcaf2;"/><path d="M1066.69,506.753c-20.25,0 -40.249,3.5 -59.249,10.25l-701.233,253.244c-23.749,8.75 -39.499,31.249 -39.499,56.499c0,25.249 15.75,47.748 39.499,56.498l144.747,52.249c-40.999,64.498 -64.249,140.747 -64.249,220.995l0,70.248c0,70.998 -26.999,144.247 -55.748,201.995c-16.25,32.499 -34.75,64.499 -56.249,93.998c-8,10.75 -10.25,24.749 -5.75,37.499c4.5,12.75 15,22.249 27.999,25.499l159.997,39.999c10.499,2.75 21.749,0.75 30.999,-4.999c9.25,-5.75 15.749,-15.25 17.749,-26c21.5,-106.997 10.75,-202.995 -5.249,-271.743c-8,-35.499 -18.75,-71.749 -33.75,-104.998l0,-61.498c0,-75.499 25.5,-146.747 69.749,-203.745c32.249,-38.749 73.998,-69.999 122.997,-89.248l392.49,-154.247c20.5,-7.999 43.749,2 51.749,22.5c8,20.499 -2,43.749 -22.499,51.749l-392.491,154.246c-30.999,12.25 -58.249,30.999 -80.498,53.999l398.99,143.996c19,6.75 38.999,10.25 59.249,10.25c20.249,-0 40.249,-3.5 59.248,-10.25l701.484,-252.494c23.749,-8.5 39.499,-31.249 39.499,-56.498c-0,-25.25 -15.75,-47.749 -39.499,-56.499l-701.234,-253.244c-18.999,-6.75 -38.999,-10.25 -59.248,-10.25Z" style="fill:#fff;"/><path d="M586.697,1446.73c0,88.248 214.995,179.995 479.989,179.995c264.994,0 479.988,-91.747 479.988,-179.995l-38.249,-363.492l-355.491,128.497c-27.75,10 -56.999,15 -86.248,15c-29.249,-0 -58.749,-5 -86.248,-15l-355.491,-128.497l-38.25,363.492Z" style="fill:#fff;"/></svg>