<?xml version="1.0" encoding="UTF-8" standalone="no"?><!DOCTYPE svg PUBLIC "-//W3C//DTD SVG 1.1//EN" "http://www.w3.org/Graphics/SVG/1.1/DTD/svg11.dtd"><svg width="100%" height="100%" viewBox="0 0 8892 8892" version="1.1" xmlns="http://www.w3.org/2000/svg" xmlns:xlink="http://www.w3.org/1999/xlink" xml:space="preserve" xmlns:serif="http://www.serif.com/" style="fill-rule:evenodd;clip-rule:evenodd;stroke-linejoin:round;stroke-miterlimit:2;"><rect id="bg" x="0" y="0" width="8888.88" height="8888.88" style="fill:#0dcaf2;"/><path d="M4444.46,7777.79c1828.61,-0 3333.33,-1504.72 3333.33,-3333.33c-0,-1828.61 -1504.72,-3333.33 -3333.33,-3333.33c-1828.61,0 -3333.33,1504.72 -3333.33,3333.33c0,1828.61 1504.72,3333.33 3333.33,3333.33Z" style="fill:#fff;"/><path d="M3389.76,3389.76c122.396,-122.396 320.313,-122.396 441.405,0l611.979,611.98l611.979,-611.98c122.396,-122.396 320.312,-122.396 441.408,0c121.092,122.396 122.396,320.313 0,441.405l-611.979,611.979l611.979,611.979c122.396,122.396 122.396,320.312 0,441.408c-122.396,121.092 -320.312,122.396 -441.408,0l-611.979,-611.979l-611.98,611.979c-122.395,122.396 -320.312,122.396 -441.404,0c-121.096,-122.396 -122.396,-320.312 0,-441.408l611.979,-611.979l-611.979,-611.98c-122.396,-122.395 -122.396,-320.312 0,-441.404Z" style="fill:#f20d0d;"/></svg>