<?xml version="1.0" encoding="UTF-8" standalone="no"?><!DOCTYPE svg PUBLIC "-//W3C//DTD SVG 1.1//EN" "http://www.w3.org/Graphics/SVG/1.1/DTD/svg11.dtd"><svg width="100%" height="100%" viewBox="0 0 2134 2134" version="1.1" xmlns="http://www.w3.org/2000/svg" xmlns:xlink="http://www.w3.org/1999/xlink" xml:space="preserve" xmlns:serif="http://www.serif.com/" style="fill-rule:evenodd;clip-rule:evenodd;stroke-linejoin:round;stroke-miterlimit:2;"><rect id="bg" x="0" y="0" width="2132.59" height="2132.59" style="fill:#0dcaf2;"/><path d="M1066.3,1866.02c438.713,0 799.719,-361.006 799.719,-799.719c0,-438.713 -361.006,-799.719 -799.719,-799.719c-438.713,-0 -799.719,361.006 -799.719,799.719c-0,438.713 361.006,799.719 799.719,799.719Z" style="fill:#fff;"/><path d="M813.258,813.258c29.365,-29.365 76.848,-29.365 105.9,-0l146.823,146.824l146.824,-146.824c29.365,-29.365 76.848,-29.365 105.901,-0c29.052,29.365 29.365,76.848 -0,105.9l-146.824,146.823l146.824,146.824c29.365,29.365 29.365,76.848 -0,105.901c-29.365,29.052 -76.848,29.365 -105.901,-0l-146.824,-146.824l-146.823,146.824c-29.365,29.365 -76.848,29.365 -105.9,-0c-29.053,-29.365 -29.365,-76.848 -0,-105.901l146.823,-146.824l-146.823,-146.823c-29.365,-29.365 -29.365,-76.848 -0,-105.9Z" style="fill:#f20d0d;"/></svg>