<?xml version="1.0" encoding="UTF-8" standalone="no"?><!DOCTYPE svg PUBLIC "-//W3C//DTD SVG 1.1//EN" "http://www.w3.org/Graphics/SVG/1.1/DTD/svg11.dtd"><svg width="100%" height="100%" viewBox="0 0 2134 2134" version="1.1" xmlns="http://www.w3.org/2000/svg" xmlns:xlink="http://www.w3.org/1999/xlink" xml:space="preserve" xmlns:serif="http://www.serif.com/" style="fill-rule:evenodd;clip-rule:evenodd;stroke-linejoin:round;stroke-miterlimit:2;"><rect id="bg" x="0" y="0" width="2133.33" height="2133.33" style="fill:#0dcaf2;"/><path d="M1106.99,267.091c-17.191,-2.188 -34.383,4.377 -45.324,17.817c-10.94,13.441 -14.378,31.571 -8.752,47.825c8.752,25.632 13.441,52.826 13.441,81.583c0,67.83 -26.569,116.28 -68.455,148.788c-43.136,33.759 -106.277,53.139 -180.671,53.139l-50.637,0.312c-110.341,0 -200.051,89.71 -200.051,200.051c-0,38.135 10.627,73.456 29.07,103.776c-130.033,21.881 -229.121,135.034 -229.121,271.319c-0,127.845 87.522,235.685 205.677,266.318c-16.567,-57.827 3.126,-120.343 50.638,-158.478l500.127,-400.102c55.014,-44.073 133.159,-43.761 188.173,0.626c55.014,44.386 71.268,120.655 40.01,183.796l-91.586,182.859l57.202,0c63.766,0 120.343,40.323 141.599,100.338c11.565,33.134 10.94,68.142 -0,99.713l33.446,-0c151.913,-0 275.069,-123.156 275.069,-275.07c0,-136.285 -99.087,-249.438 -229.12,-271.319c18.442,-30.32 29.07,-65.954 29.07,-103.776c-0,-110.341 -89.711,-200.051 -200.051,-200.051l-4.376,0c2.813,-16.879 4.376,-34.071 4.376,-51.888c-0,-152.226 -112.841,-277.883 -259.754,-297.576Z" style="fill:#f20d0d;"/><path d="M1247.96,977.897c-18.13,-14.691 -44.387,-14.691 -62.829,-0.313l-500.127,400.102c-16.566,13.128 -23.131,35.634 -15.941,55.639c7.189,20.005 25.944,33.446 47.199,33.446l219.118,-0l-163.479,327.583c-10.627,20.943 -5.001,46.574 13.441,61.266c18.442,14.691 44.387,14.691 62.829,0.312l500.127,-400.101c16.566,-13.129 23.131,-35.634 15.941,-55.639c-7.189,-20.006 -25.944,-33.446 -47.199,-33.446l-219.118,-0l163.791,-327.584c10.628,-20.942 5.001,-46.574 -13.441,-61.265l-0.312,-0Z" style="fill:#fff;"/></svg>