<?xml version="1.0" encoding="UTF-8" standalone="no"?><!DOCTYPE svg PUBLIC "-//W3C//DTD SVG 1.1//EN" "http://www.w3.org/Graphics/SVG/1.1/DTD/svg11.dtd"><svg width="100%" height="100%" viewBox="0 0 2134 2134" version="1.1" xmlns="http://www.w3.org/2000/svg" xmlns:xlink="http://www.w3.org/1999/xlink" xml:space="preserve" xmlns:serif="http://www.serif.com/" style="fill-rule:evenodd;clip-rule:evenodd;stroke-linejoin:round;stroke-miterlimit:2;"><rect id="bg" x="0" y="0" width="2133.33" height="2133.33" style="fill:#0dcaf2;"/><path d="M766.667,566.667l-0,500c-0,165.625 134.375,300 300,300c165.625,-0 300,-134.375 300,-300l-250,-0c-27.5,-0 -50,-22.5 -50,-50c-0,-27.5 22.5,-50 50,-50l250,-0l-0,-100l-250,-0c-27.5,-0 -50,-22.5 -50,-50c-0,-27.5 22.5,-50 50,-50l250,-0l-0,-100l-250,-0c-27.5,-0 -50,-22.5 -50,-50c-0,-27.5 22.5,-50 50,-50l250,-0c-0,-165.625 -134.375,-300 -300,-300c-165.625,-0 -300,134.375 -300,300Z" style="fill:#fff;"/><path d="M1466.67,941.667l-0,125c-0,220.937 -179.063,400 -400,400c-220.938,-0 -400,-179.063 -400,-400l-0,-125c-0,-41.563 -33.438,-75 -75,-75c-41.563,-0 -75,33.437 -75,75l-0,125c-0,278.437 206.875,508.437 475,545l-0,105l-150,-0c-41.563,-0 -75,33.437 -75,75c-0,41.562 33.437,75 75,75l450,-0c41.562,-0 75,-33.438 75,-75c-0,-41.563 -33.438,-75 -75,-75l-150,-0l-0,-105c268.125,-36.563 475,-266.563 475,-545l-0,-125c-0,-41.563 -33.438,-75 -75,-75c-41.563,-0 -75,33.437 -75,75Z" style="fill:#f20d0d;"/></svg>