<?xml version="1.0" encoding="UTF-8" standalone="no"?><!DOCTYPE svg PUBLIC "-//W3C//DTD SVG 1.1//EN" "http://www.w3.org/Graphics/SVG/1.1/DTD/svg11.dtd"><svg width="100%" height="100%" viewBox="0 0 2134 2134" version="1.1" xmlns="http://www.w3.org/2000/svg" xmlns:xlink="http://www.w3.org/1999/xlink" xml:space="preserve" xmlns:serif="http://www.serif.com/" style="fill-rule:evenodd;clip-rule:evenodd;stroke-linejoin:round;stroke-miterlimit:2;"><rect id="bg" x="0" y="0" width="2132.59" height="2132.59" style="fill:#0dcaf2;"/><path d="M1066.3,1866.02c438.713,0 799.719,-361.006 799.719,-799.719c0,-438.713 -361.006,-799.719 -799.719,-799.719c-438.713,-0 -799.719,361.006 -799.719,799.719c-0,438.713 361.006,799.719 799.719,799.719Z" style="fill:#fff;"/><path d="M266.667,1066.67c-0,-438.867 361.133,-800 800,-800c438.867,-0 800,361.133 800,800c-0,438.867 -361.133,800 -800,800c-438.867,-0 -800,-361.133 -800,-800Zm800,100c-54.859,-0 -100,-45.142 -100,-100c-0,-54.859 45.141,-100 100,-100c54.858,-0 100,45.141 100,100c-0,54.858 -45.142,100 -100,100Zm-300,-100c-0,164.575 135.425,300 300,300c164.575,-0 300,-135.425 300,-300c-0,-164.575 -135.425,-300 -300,-300c-164.575,-0 -300,135.425 -300,300Zm-200,-50c-0,-109.375 54.687,-222.188 141.25,-308.75c86.562,-86.563 199.375,-141.25 308.75,-141.25c27.5,-0 50,-22.5 50,-50c-0,-27.5 -22.5,-50 -50,-50c-141.875,-0 -278.75,69.687 -379.688,170.312c-100.937,100.625 -170.312,237.813 -170.312,379.688c-0,27.5 22.5,50 50,50c27.5,-0 50,-22.5 50,-50Z" style="fill:#f20d0d;fill-rule:nonzero;"/></svg>