<?xml version="1.0" encoding="UTF-8" standalone="no"?><!DOCTYPE svg PUBLIC "-//W3C//DTD SVG 1.1//EN" "http://www.w3.org/Graphics/SVG/1.1/DTD/svg11.dtd"><svg width="100%" height="100%" viewBox="0 0 2134 2134" version="1.1" xmlns="http://www.w3.org/2000/svg" xmlns:xlink="http://www.w3.org/1999/xlink" xml:space="preserve" xmlns:serif="http://www.serif.com/" style="fill-rule:evenodd;clip-rule:evenodd;stroke-linejoin:round;stroke-miterlimit:2;"><rect id="bg" x="0" y="0" width="2133.33" height="2133.33" style="fill:#0dcaf2;"/><path d="M566.667,566.667c-0,-110.313 89.687,-200 200,-200l900,-0c110.312,-0 200,89.687 200,200l-0,1000c-0,110.312 -89.688,200 -200,200l-1150,-0c-138.125,-0 -250,-111.875 -250,-250l-0,-850c-0,-55.313 44.687,-100 100,-100c55.312,-0 100,44.687 100,100l-0,850c-0,27.5 22.5,50 50,50c27.5,-0 50,-22.5 50,-50l-0,-950Z" style="fill:#fff;"/><path d="M766.667,791.667l-0,250c-0,41.562 33.437,75 75,75l350,-0c41.562,-0 75,-33.438 75,-75l-0,-250c-0,-41.563 -33.438,-75 -75,-75l-350,-0c-41.563,-0 -75,33.437 -75,75Z" style="fill:#0dcaf2;"/><path d="M766.667,1516.67c-0,27.5 22.5,50 50,50l800,-0c27.5,-0 50,-22.5 50,-50c-0,-27.5 -22.5,-50 -50,-50l-800,-0c-27.5,-0 -50,22.5 -50,50Z" style="fill:#0dcaf2;"/><path d="M1416.67,916.667c-0,27.5 22.5,50 50,50l150,-0c27.5,-0 50,-22.5 50,-50c-0,-27.5 -22.5,-50 -50,-50l-150,-0c-27.5,-0 -50,22.5 -50,50Z" style="fill:#f20d0d;"/><path d="M766.667,1216.67c-0,27.5 22.5,50 50,50l800,-0c27.5,-0 50,-22.5 50,-50c-0,-27.5 -22.5,-50 -50,-50l-800,-0c-27.5,-0 -50,22.5 -50,50Z" style="fill:#f20d0d;"/><path d="M766.667,616.667c-0,27.5 22.5,50 50,50l800,-0c27.5,-0 50,-22.5 50,-50c-0,-27.5 -22.5,-50 -50,-50l-800,-0c-27.5,-0 -50,22.5 -50,50Z" style="fill:#f20d0d;"/></svg>