<?xml version="1.0" encoding="UTF-8" standalone="no"?><!DOCTYPE svg PUBLIC "-//W3C//DTD SVG 1.1//EN" "http://www.w3.org/Graphics/SVG/1.1/DTD/svg11.dtd"><svg width="100%" height="100%" viewBox="0 0 2134 2134" version="1.1" xmlns="http://www.w3.org/2000/svg" xmlns:xlink="http://www.w3.org/1999/xlink" xml:space="preserve" xmlns:serif="http://www.serif.com/" style="fill-rule:evenodd;clip-rule:evenodd;stroke-linejoin:round;stroke-miterlimit:2;"><rect id="bg" x="0" y="0" width="2133.33" height="2133.33" style="fill:#0dcaf2;"/><path id="icon" d="M384.14,279.792c-30,-20.313 -70,-16.563 -95.625,8.75c-25.625,25.312 -29.375,65.625 -8.75,95.312l350,510.313l-311.25,101.25c-30.937,10 -51.875,38.75 -51.875,71.25c0,32.5 20.938,61.25 51.875,71.25l322.188,104.375l-165.313,314.375c-15.312,29.062 -10,64.687 13.438,87.812c23.437,23.125 58.75,28.75 87.812,13.438l314.375,-165.313l104.375,322.188c10,30.937 38.75,51.875 71.25,51.875c32.5,-0 61.25,-20.938 71.25,-51.875l104.375,-322.188l314.375,165.313c29.063,15.312 64.688,10 87.813,-13.438c23.125,-23.437 28.75,-58.75 13.437,-87.812l-165.312,-314.375l322.187,-104.375c30.938,-10 51.875,-38.75 51.875,-71.25c0,-32.5 -20.937,-61.25 -51.875,-71.25l-332.812,-107.813l80.312,-220c10,-27.5 3.125,-58.125 -17.5,-78.75c-20.625,-20.625 -51.25,-27.5 -78.75,-17.5l-220,80.313l-108.125,-333.125c-10,-30.938 -38.75,-51.875 -71.25,-51.875c-32.5,-0 -61.25,20.937 -71.25,51.875l-100.937,311.25l-510.313,-350Z" style="fill:#fff;fill-rule:nonzero;"/></svg>