<?xml version="1.0" encoding="UTF-8" standalone="no"?><!DOCTYPE svg PUBLIC "-//W3C//DTD SVG 1.1//EN" "http://www.w3.org/Graphics/SVG/1.1/DTD/svg11.dtd"><svg width="100%" height="100%" viewBox="0 0 2134 2134" version="1.1" xmlns="http://www.w3.org/2000/svg" xmlns:xlink="http://www.w3.org/1999/xlink" xml:space="preserve" xmlns:serif="http://www.serif.com/" style="fill-rule:evenodd;clip-rule:evenodd;stroke-linejoin:round;stroke-miterlimit:2;"><rect id="bg" x="0" y="0" width="2133.33" height="2133.33" style="fill:#0dcaf2;"/><path d="M1866.67,1066.67l-0,8.437c-1.25,114.063 -105,191.563 -219.063,191.563l-305.937,-0c-82.813,-0 -150,67.187 -150,150c-0,10.625 1.25,20.937 3.125,30.937c6.562,31.875 20.312,62.5 33.75,93.438c19.062,43.125 37.812,85.937 37.812,131.25c0,99.375 -67.5,189.687 -166.875,193.75c-10.937,0.312 -21.875,0.625 -33.125,0.625c-441.562,-0 -799.687,-358.125 -799.687,-800c-0,-441.875 358.125,-800 800,-800c441.875,-0 800,358.125 800,800Z" style="fill:#f20d0d;"/><path d="M666.667,1166.67c-0,-54.859 -45.142,-100 -100,-100c-54.859,-0 -100,45.141 -100,100c-0,54.858 45.141,100 100,100c54.858,-0 100,-45.142 100,-100Z" style="fill:#fff;"/><path d="M1166.67,566.667c-0,-54.859 -45.142,-100 -100,-100c-54.859,-0 -100,45.141 -100,100c-0,54.858 45.141,100 100,100c54.858,-0 100,-45.142 100,-100Z" style="fill:#fff;"/><path d="M1466.67,866.667c54.858,-0 100,-45.142 100,-100c-0,-54.859 -45.142,-100 -100,-100c-54.859,-0 -100,45.141 -100,100c-0,54.858 45.141,100 100,100Z" style="fill:#fff;"/><path d="M666.667,866.667c54.858,-0 100,-45.142 100,-100c-0,-54.859 -45.142,-100 -100,-100c-54.859,-0 -100,45.141 -100,100c-0,54.858 45.141,100 100,100Z" style="fill:#fff;"/></svg>