<?xml version="1.0" encoding="UTF-8" standalone="no"?><!DOCTYPE svg PUBLIC "-//W3C//DTD SVG 1.1//EN" "http://www.w3.org/Graphics/SVG/1.1/DTD/svg11.dtd"><svg width="100%" height="100%" viewBox="0 0 2134 2134" version="1.1" xmlns="http://www.w3.org/2000/svg" xmlns:xlink="http://www.w3.org/1999/xlink" xml:space="preserve" xmlns:serif="http://www.serif.com/" style="fill-rule:evenodd;clip-rule:evenodd;stroke-linejoin:round;stroke-miterlimit:2;"><rect id="bg" x="0" y="0" width="2133.33" height="2133.33" style="fill:#0dcaf2;"/><g><path d="M506.667,746.667c-0,-175.547 144.453,-320 320,-320c175.546,-0 320,144.453 320,320c-0,175.546 -144.454,320 -320,320c-175.547,-0 -320,-144.454 -320,-320Z" style="fill:#fff;"/><path d="M266.667,1632.42c-0,-246.25 199.5,-445.75 445.75,-445.75l228.5,-0c246.25,-0 445.75,199.5 445.75,445.75c-0,41 -33.25,74.25 -74.25,74.25l-971.5,-0c-41,-0 -74.25,-33.25 -74.25,-74.25Z" style="fill:#fff;"/></g><g><path d="M1789.92,1706.67l-344.5,-0c13.5,-23.5 21.5,-50.75 21.5,-80l-0,-20c-0,-151.75 -67.75,-288 -174.5,-379.5c6,-0.25 11.75,-0.5 17.75,-0.5l153.5,-0c222.5,-0 403,180.5 403,403.25c-0,42.5 -34.5,76.75 -76.75,76.75Z" style="fill:#f20d0d;"/><path d="M1346.67,1066.67c-77.5,-0 -147.5,-31.5 -198.25,-82.25c49.25,-66.5 78.25,-148.75 78.25,-237.75c-0,-67 -16.5,-130.25 -45.75,-185.75c46.5,-34 103.75,-54.25 165.75,-54.25c154.75,-0 280,125.25 280,280c-0,154.75 -125.25,280 -280,280Z" style="fill:#f20d0d;"/></g></svg>