<?xml version="1.0" encoding="UTF-8" standalone="no"?><!DOCTYPE svg PUBLIC "-//W3C//DTD SVG 1.1//EN" "http://www.w3.org/Graphics/SVG/1.1/DTD/svg11.dtd"><svg width="100%" height="100%" viewBox="0 0 2134 2134" version="1.1" xmlns="http://www.w3.org/2000/svg" xmlns:xlink="http://www.w3.org/1999/xlink" xml:space="preserve" xmlns:serif="http://www.serif.com/" style="fill-rule:evenodd;clip-rule:evenodd;stroke-linecap:round;stroke-linejoin:round;stroke-miterlimit:1.5;"><rect id="bg" x="0" y="0" width="2133.33" height="2133.33" style="fill:#0dcaf2;"/><path d="M266.667,711.111c-0,-98.055 79.722,-177.778 177.777,-177.778l711.112,0c98.055,0 177.777,79.723 177.777,177.778l0,711.111c0,98.056 -79.722,177.778 -177.777,177.778l-711.112,0c-98.055,0 -177.777,-79.722 -177.777,-177.778l-0,-711.111Zm1553.06,-78.333c28.889,15.555 46.945,45.555 46.945,78.333l-0,711.111c-0,32.778 -18.056,62.778 -46.945,78.334c-28.889,15.555 -63.889,13.888 -91.389,-4.445l-266.666,-177.778l-39.445,-26.389l0,-450.555l39.445,-26.389l266.666,-177.778c27.223,-18.055 62.223,-20 91.389,-4.444Z" style="fill:#f20d0d;fill-rule:nonzero;"/><path d="M450.313,1066.67l235.426,-76.495l-0,-247.542l145.501,200.266l235.427,-76.495l-145.502,200.266l145.502,200.265l-235.427,-76.494l-145.501,200.265l-0,-247.542l-235.426,-76.494Z" style="fill:#fff;stroke:#fff;stroke-width:58.33px;"/></svg>