<?xml version="1.0" encoding="UTF-8" standalone="no"?><!DOCTYPE svg PUBLIC "-//W3C//DTD SVG 1.1//EN" "http://www.w3.org/Graphics/SVG/1.1/DTD/svg11.dtd"><svg width="100%" height="100%" viewBox="0 0 2134 2134" version="1.1" xmlns="http://www.w3.org/2000/svg" xmlns:xlink="http://www.w3.org/1999/xlink" xml:space="preserve" xmlns:serif="http://www.serif.com/" style="fill-rule:evenodd;clip-rule:evenodd;stroke-linejoin:round;stroke-miterlimit:2;"><rect id="bg" x="0" y="0" width="2133.33" height="2133.33" style="fill:#0dcaf2;"/><path d="M1420.74,317.952l-175.42,175.735l394.302,394.302l175.42,-175.42c68.972,-68.972 68.972,-180.46 0,-249.431l-144.871,-145.186c-68.971,-68.972 -180.459,-68.972 -249.431,-0Z" style="fill:#fff;"/><path d="M1167.53,558.249l-28.974,8.818l-453.825,136.053c-62.672,18.897 -112.433,66.767 -133.218,129.125l-279.035,832.065c-11.968,35.588 -3.15,75.27 22.99,102.04l483.744,-483.429c-9.448,-19.842 -14.802,-41.887 -14.802,-65.193c0,-83.458 67.712,-151.17 151.17,-151.17c83.459,0 151.17,67.712 151.17,151.17c0,83.459 -67.711,151.17 -151.17,151.17c-23.305,0 -45.351,-5.353 -65.192,-14.802l-483.744,483.745c27.085,26.139 66.452,35.273 102.04,22.99l832.38,-279.035c62.043,-20.786 110.228,-70.546 129.124,-133.218l136.053,-453.825l8.504,-28.975l-407.215,-407.529Z" style="fill:#f20d0d;"/></svg>